<svg xmlns="http://www.w3.org/2000/svg" viewBox="0 0 50 50" fill="#fff"><path d="M25 2C12.31 2 2 12.31 2 25s10.31 23 23 23 23-10.31 23-23S37.69 2 25 2zm0 2c11.61 0 21 9.39 21 21s-9.39 21-21 21S4 36.61 4 25 13.39 4 25 4zm.57 7C17.925 11 13 16.42 13 21.648c0 5.102 2.824 6.3 3.416 6.643.591.346 1.01.103 1.143-.367l.355-1.426s.165-.378-.162-.773c-.403-.486-1.273-1.372-1.273-3.577 0-3.932 3.104-8.214 8.732-8.214 5.524 0 7.416 3.597 7.416 6.574 0 3.702-1.774 9.236-5.518 9.236-2.325 0-2.994-1.794-2.994-2.672-.015-.297.053-.596.082-.738.03-.141.975-3.152 1.276-4.225.676-2.405.097-4.406-2.114-4.406-3.117 0-4.239 4.387-2.87 7.193l-2.225 9.108s-.308 1.491-.368 2.371c-.092 1.351.1 3.35.166 3.945.048.432.05.639.247.678.197.038.531-.295.802-.695.34-.504 1.497-2.137 1.967-3.176.42-.927.494-.95.928-2.592.434-1.642 1.02-3.95 1.02-3.95s1.22 2.138 4.517 2.138c4.689 0 9.457-4.083 9.457-11.717C37 14.818 31.64 11 25.57 11z"/></svg>